{
  "asset": {
    "version": "2.0",
    "generator": "Copilot glTF scene generator"
  },
  "extensionsUsed": [
    "KHR_materials_pbrSpecularGlossiness"
  ],
  "scene": 0,
  "scenes": [
    {
      "name": "material_reference",
      "nodes": [
        0,
        1,
        2,
        3,
        4,
        5,
        6,
        7
      ]
    }
  ],
  "nodes": [
    {
      "name": "Grid_r0_c0",
      "mesh": 0,
      "translation": [
        -2.25,
        -0.75,
        0.0
      ]
    },
    {
      "name": "Grid_r0_c1",
      "mesh": 1,
      "translation": [
        -0.75,
        -0.75,
        0.0
      ]
    },
    {
      "name": "Grid_r0_c2",
      "mesh": 2,
      "translation": [
        0.75,
        -0.75,
        0.0
      ]
    },
    {
      "name": "Grid_r0_c3",
      "mesh": 3,
      "translation": [
        2.25,
        -0.75,
        0.0
      ]
    },
    {
      "name": "Grid_r1_c0",
      "mesh": 4,
      "translation": [
        -2.25,
        0.75,
        0.0
      ]
    },
    {
      "name": "Grid_r1_c1",
      "mesh": 5,
      "translation": [
        -0.75,
        0.75,
        0.0
      ]
    },
    {
      "name": "Grid_r1_c2",
      "mesh": 6,
      "translation": [
        0.75,
        0.75,
        0.0
      ]
    },
    {
      "name": "Grid_r1_c3",
      "mesh": 7,
      "translation": [
        2.25,
        0.75,
        0.0
      ]
    }
  ],
  "meshes": [
    {
      "name": "Sphere_MR_Wood",
      "primitives": [
        {
          "attributes": {
            "POSITION": 0,
            "NORMAL": 1,
            "TEXCOORD_0": 2
          },
          "indices": 3,
          "material": 0
        }
      ]
    },
    {
      "name": "Sphere_MR_RubberBlack",
      "primitives": [
        {
          "attributes": {
            "POSITION": 0,
            "NORMAL": 1,
            "TEXCOORD_0": 2
          },
          "indices": 3,
          "material": 1
        }
      ]
    },
    {
      "name": "Sphere_SG_Skin",
      "primitives": [
        {
          "attributes": {
            "POSITION": 0,
            "NORMAL": 1,
            "TEXCOORD_0": 2
          },
          "indices": 3,
          "material": 2
        }
      ]
    },
    {
      "name": "Sphere_SG_CarPaintGlossy",
      "primitives": [
        {
          "attributes": {
            "POSITION": 0,
            "NORMAL": 1,
            "TEXCOORD_0": 2
          },
          "indices": 3,
          "material": 3
        }
      ]
    },
    {
      "name": "Sphere_MR_BrushedAluminum",
      "primitives": [
        {
          "attributes": {
            "POSITION": 0,
            "NORMAL": 1,
            "TEXCOORD_0": 2
          },
          "indices": 3,
          "material": 4
        }
      ]
    },
    {
      "name": "Sphere_MR_PolishedSteel",
      "primitives": [
        {
          "attributes": {
            "POSITION": 0,
            "NORMAL": 1,
            "TEXCOORD_0": 2
          },
          "indices": 3,
          "material": 5
        }
      ]
    },
    {
      "name": "Sphere_MR_Gold",
      "primitives": [
        {
          "attributes": {
            "POSITION": 0,
            "NORMAL": 1,
            "TEXCOORD_0": 2
          },
          "indices": 3,
          "material": 6
        }
      ]
    },
    {
      "name": "Sphere_MR_Copper",
      "primitives": [
        {
          "attributes": {
            "POSITION": 0,
            "NORMAL": 1,
            "TEXCOORD_0": 2
          },
          "indices": 3,
          "material": 7
        }
      ]
    }
  ],
  "materials": [
    {
      "name": "MR_Wood",
      "pbrMetallicRoughness": {
        "baseColorFactor": [
          0.68,
          0.22,
          0.2,
          1.0
        ],
        "metallicFactor": 0.0,
        "roughnessFactor": 0.7
      }
    },
    {
      "name": "MR_RubberBlack",
      "pbrMetallicRoughness": {
        "baseColorFactor": [
          0.25,
          0.42,
          0.2,
          1.0
        ],
        "metallicFactor": 0.0,
        "roughnessFactor": 0.4
      }
    },
    {
      "name": "SG_Skin",
      "extensions": {
        "KHR_materials_pbrSpecularGlossiness": {
          "diffuseFactor": [
            0.12,
            0.22,
            0.55,
            1.0
          ],
          "specularFactor": [
            0.06,
            0.06,
            0.06
          ],
          "glossinessFactor": 0.7
        }
      }
    },
    {
      "name": "SG_CarPaintGlossy",
      "extensions": {
        "KHR_materials_pbrSpecularGlossiness": {
          "diffuseFactor": [
            0.02,
            0.02,
            0.02,
            1.0
          ],
          "specularFactor": [
            0.08,
            0.08,
            0.08
          ],
          "glossinessFactor": 0.9
        }
      }
    },
    {
      "name": "MR_BrushedAluminum",
      "pbrMetallicRoughness": {
        "baseColorFactor": [
          0.91,
          0.92,
          0.92,
          1.0
        ],
        "metallicFactor": 1.0,
        "roughnessFactor": 0.5
      }
    },
    {
      "name": "MR_PolishedSteel",
      "pbrMetallicRoughness": {
        "baseColorFactor": [
          0.56,
          0.57,
          0.58,
          1.0
        ],
        "metallicFactor": 1.0,
        "roughnessFactor": 0.1
      }
    },
    {
      "name": "MR_Gold",
      "pbrMetallicRoughness": {
        "baseColorFactor": [
          1.0,
          0.766,
          0.336,
          1.0
        ],
        "metallicFactor": 1.0,
        "roughnessFactor": 0.2
      }
    },
    {
      "name": "MR_Copper",
      "pbrMetallicRoughness": {
        "baseColorFactor": [
          0.955,
          0.637,
          0.538,
          1.0
        ],
        "metallicFactor": 1.0,
        "roughnessFactor": 0.25
      }
    }
  ],
  "buffers": [
    {
      "uri": "data:application/octet-stream;base64,",
      "byteLength": 24096
    }
  ],
  "bufferViews": [
    {
      "buffer": 0,
      "byteOffset": 0,
      "byteLength": 6732,
      "target": 34962
    },
    {
      "buffer": 0,
      "byteOffset": 6732,
      "byteLength": 6732,
      "target": 34962
    },
    {
      "buffer": 0,
      "byteOffset": 13464,
      "byteLength": 4488,
      "target": 34962
    },
    {
      "buffer": 0,
      "byteOffset": 17952,
      "byteLength": 6144,
      "target": 34963
    }
  ],
  "accessors": [
    {
      "bufferView": 0,
      "byteOffset": 0,
      "componentType": 5126,
      "count": 561,
      "type": "VEC3",
      "min": [
        -0.5,
        -0.5,
        -0.5
      ],
      "max": [
        0.5,
        0.5,
        0.5
      ]
    },
    {
      "bufferView": 1,
      "byteOffset": 0,
      "componentType": 5126,
      "count": 561,
      "type": "VEC3"
    },
    {
      "bufferView": 2,
      "byteOffset": 0,
      "componentType": 5126,
      "count": 561,
      "type": "VEC2"
    },
    {
      "bufferView": 3,
      "byteOffset": 0,
      "componentType": 5123,
      "count": 3072,
      "type": "SCALAR"
    }
  ]
}